<svg xmlns="http://www.w3.org/2000/svg" viewBox="0 0 641.31 641.31">
  <defs>
    <style>
      .cls-1 {
        fill: gray;
      }
    </style>
  </defs>
  <title>Logo</title>
  <g id="Layer_2" data-name="Layer 2">
    <g id="Layer_32" data-name="Layer 32">
      <g>
        <rect class="cls-1" x="265.56" y="522.97" width="24.06" height="73.58" transform="translate(-314.51 360.24) rotate(-45)"/>
        <rect class="cls-1" x="248.55" y="562.19" width="24.06" height="55.19" transform="translate(-340.72 357) rotate(-45)"/>
        <polygon class="cls-1" points="248.07 641.31 0 393.24 393.24 0 641.31 248.07 624.3 265.08 393.24 34.02 34.02 393.24 265.08 624.3 248.07 641.31"/>
        <rect class="cls-1" x="359.62" y="428.91" width="24.06" height="73.58" transform="translate(-220.45 399.2) rotate(-45)"/>
        <rect class="cls-1" x="419.66" y="413.29" width="24.06" height="36.79" transform="translate(-178.81 431.68) rotate(-45)"/>
        <rect class="cls-1" x="436.67" y="374.07" width="24.06" height="55.19" transform="translate(-152.6 434.93) rotate(-45)"/>
        <rect class="cls-1" x="453.68" y="334.85" width="24.06" height="73.58" transform="translate(-126.39 438.16) rotate(-45)"/>
        <rect class="cls-1" x="464.18" y="279.94" width="24.06" height="110.38" transform="translate(-97.49 434.89) rotate(-45)"/>
        <rect class="cls-1" x="474.69" y="225.02" width="24.06" height="147.17" transform="translate(-68.59 431.62) rotate(-45)"/>
        <rect class="cls-1" x="511.21" y="232.91" width="24.06" height="110.38" transform="translate(-50.46 454.37) rotate(-45)"/>
        <rect class="cls-1" x="547.74" y="240.8" width="24.06" height="73.58" transform="translate(-32.33 477.12) rotate(-45)"/>
        <rect class="cls-1" x="577.75" y="232.98" width="24.06" height="55.19" transform="translate(-11.51 493.36) rotate(-45)"/>
        <rect class="cls-1" x="276.07" y="468.05" width="24.06" height="110.38" transform="translate(-285.61 356.97) rotate(-45)"/>
        <rect class="cls-1" x="286.57" y="413.13" width="24.06" height="147.17" transform="translate(-256.7 353.7) rotate(-45)"/>
        <rect class="cls-1" x="323.1" y="421.02" width="24.06" height="110.38" transform="translate(-238.58 376.45) rotate(-45)"/>
        <rect class="cls-1" x="389.64" y="421.1" width="24.06" height="55.19" transform="translate(-199.63 415.44) rotate(-45)"/>
        <path class="cls-1" d="M188.12,428.88a52.65,52.65,0,1,1,37.23-15.42A52.31,52.31,0,0,1,188.12,428.88Zm0-81.25A28.6,28.6,0,1,0,208.34,356,28.41,28.41,0,0,0,188.12,347.63Z"/>
        <path class="cls-1" d="M376.23,240.77a52.65,52.65,0,1,1,37.23-89.88h0a52.65,52.65,0,0,1-37.23,89.88Zm0-81.25a28.6,28.6,0,1,0,20.22,8.38h0A28.41,28.41,0,0,0,376.23,159.52Z"/>
      </g>
    </g>
  </g>
</svg>
